<svg xmlns="http://www.w3.org/2000/svg" width="142.571" height="31.918" viewBox="0 0 37.722 8.445" xmlns:v="https://vecta.io/nano"><path d="M1.213.916V6.63H0V.916zm3.64 1.204q.578 0 .9.355.322.347.322.966v3.19H4.903v-3q0-.355-.124-.495-.116-.15-.355-.15-.248 0-.454.157-.198.15-.388.454V6.63H2.4V2.254h1.015l.1.553q.272-.338.594-.512.33-.173.743-.173zm6.12-1.608V6.63H9.94l-.066-.537q-.462.67-1.255.67-.8 0-1.238-.62-.42-.627-.42-1.7 0-.677.215-1.197.223-.528.627-.826.405-.297.933-.297.6 0 1.065.438V.38zM8.966 5.886q.256 0 .454-.124.198-.132.38-.405V3.4q-.173-.206-.355-.305-.173-.107-.405-.107-.405 0-.636.355-.223.355-.223 1.098 0 .784.198 1.115.206.33.586.33zm4.34-3.632V6.63h-1.172V2.254zM12.7 0q.314 0 .512.198.206.2.206.487 0 .297-.206.495-.198.2-.512.2-.314 0-.512-.2Q12 .982 12 .685q0-.297.198-.487.2-.198.512-.198zm3.57 2.12q.438 0 .784.132.355.124.67.396l-.512.693q-.215-.165-.42-.24-.198-.074-.438-.074-.933 0-.933 1.436 0 .726.24 1.04.24.314.685.314.23 0 .42-.066.2-.074.446-.24l.512.735q-.627.512-1.436.512-.644 0-1.123-.28-.47-.28-.726-.793-.256-.52-.256-1.214 0-.693.256-1.222.256-.537.726-.834.48-.297 1.106-.297zm2.62 3.23q.297 0 .504.206.206.206.206.495 0 .3-.206.504-.206.206-.504.206-.3 0-.495-.206-.206-.215-.206-.504 0-.3.206-.495.206-.206.495-.206zm3.875-3.23q.826 0 1.222.6.405.603.405 1.7 0 .67-.206 1.197-.206.528-.603.834-.388.297-.925.297-.67 0-1.08-.47V8.31l-1.172.132v-6.19h1.032l.058.512q.248-.322.578-.48.338-.165.693-.165zm-.454 3.765q.86 0 .86-1.445 0-.793-.2-1.123-.2-.33-.578-.33-.248 0-.462.157-.206.15-.363.405v1.907q.28.43.735.43zm6.274-.47q0 .256.074.38.074.116.248.173l-.248.776q-.388-.033-.636-.182-.24-.15-.372-.462-.43.66-1.313.66-.652 0-1.04-.372-.38-.38-.38-.982 0-.718.52-1.098.52-.38 1.494-.38h.504v-.215q0-.405-.182-.56-.182-.157-.603-.157-.462 0-1.156.23l-.264-.784q.817-.322 1.618-.322.892 0 1.313.388.42.38.42 1.14zm-1.924.504q.495 0 .776-.487v-.834h-.388q-.95 0-.95.7 0 .3.14.454.15.157.42.157zm6.93-3.426q-.43.165-1.263.165.413.182.6.454.198.264.198.67 0 .42-.223.76-.215.33-.627.52-.405.2-.95.2-.3 0-.512-.058-.165.107-.165.3 0 .132.1.215.107.074.405.074h.67q.487 0 .85.165.372.157.57.446.206.28.206.644 0 .67-.578 1.04-.57.38-1.65.38-.776 0-1.23-.165-.446-.157-.627-.462-.182-.305-.182-.768h1.048q0 .215.083.338.083.132.297.2.223.066.636.066.57 0 .793-.14.23-.14.23-.396 0-.23-.173-.355-.173-.124-.512-.124h-.644q-.652 0-.974-.24-.322-.248-.322-.62 0-.23.132-.446.14-.223.38-.372-.405-.223-.594-.52-.182-.305-.182-.726 0-.48.23-.834.24-.363.66-.553.43-.198.974-.198.677.017 1.115-.116.438-.132.933-.413zm-2.312.413q-.33 0-.528.215-.2.206-.2.57 0 .372.2.586.198.215.537.215.355 0 .537-.206.182-.206.182-.6 0-.768-.726-.768zm6.432 1.436q0 .083-.025.454h-2.733q.058.594.322.842.264.248.718.248.28 0 .528-.1.248-.1.537-.3l.487.66q-.735.594-1.66.594-1.032 0-1.585-.62-.553-.62-.553-1.676 0-.67.23-1.197.24-.537.685-.842.454-.305 1.073-.305.933 0 1.453.586.52.586.52 1.635zm-1.164-.33q0-1.1-.784-1.1-.363 0-.57.272-.198.264-.24.867h1.593z"/></svg>